# xmcd
#
# Track frame offsets:
#	150
#	10347
#	24286
#	36156
#	49414
#	66579
#	76405
#	91652
#	109897
#	123082
#	137173
#	152703
#	168976
#	184100
#	197607
#	213133
#	229403
#	245866
#	262147
#	280655
#	300350
#	318136
#	332971
#
# Disc length: 4676 seconds
#
# Revision: 5
# Processed by: cddbd v1.5.2PL0 Copyright (c) Steve Scherf et al.
# Submitted via: EZCDAudioConverter 2.1.7.1
#
DISCID=42124217
DTITLE=V/A - Black Ark Years 1/2
DYEAR=2010
DGENRE=
TTITLE0=The Upsetters - Enter The Dragon
TTITLE1=Susan Cadogan and The Mighty Diamonds - It Hurts So Good (aka Hurt So Go
TTITLE1=od)
TTITLE2=King Burnett - Babylon A Fall
TTITLE3=Junior Byles - Curley Locks
TTITLE4=Junior Byles and Lee Perry - Dreader Locks
TTITLE5=Lee Perry - Stay Dread
TTITLE6=Susan Cadogan - Do It Baby (aka Nice And Easy)
TTITLE7=Junior Byles - The Long Way
TTITLE8=Max Romeo and The Upsetters - Three Blind Mice
TTITLE9=King Tubby - Three Times Three
TTITLE10=The Upsetters - Bury The Razor
TTITLE11=Brent Dowe - Down Here In Babylon
TTITLE12=Bunny 'Rugs' Clarke - Be Thankful (For What You've Got)
TTITLE13=Jimmy Riley - Woman's Gotta Have It
TTITLE14=Bunny and Ricky - Bushweed Corntrash
TTITLE15=Lee Perry - Roast Fish And Corn Bread [Jamaican Mix]
TTITLE16=Max Romeo - Sipple Out Deh [Jamaican Mix]
TTITLE17=Prince Jazzbo - Ital Corner
TTITLE18=Junior Murvin - Police And Thief
TTITLE19=Lee Perry - White Belly Rat
TTITLE20=The Heptones - Sufferer's Time
TTITLE21=Junior Dread - A Wah Dat (aka A Wat Dat)
TTITLE22=Gregory Isaacs - Mr. Cop
EXTD=
EXTT0=
EXTT1=
EXTT2=
EXTT3=
EXTT4=
EXTT5=
EXTT6=
EXTT7=
EXTT8=
EXTT9=
EXTT10=
EXTT11=
EXTT12=
EXTT13=
EXTT14=
EXTT15=
EXTT16=
EXTT17=
EXTT18=
EXTT19=
EXTT20=
EXTT21=
EXTT22=
PLAYORDER=
